<svg width="22" height="20" viewBox="0 0 22 20" fill="none" xmlns="http://www.w3.org/2000/svg">
<path d="M19.7999 0H6.5999C6.01643 0 5.45685 0.210714 5.04427 0.585786C4.63169 0.960859 4.3999 1.46957 4.3999 2V14C4.3999 14.5304 4.63169 15.0391 5.04427 15.4142C5.45685 15.7893 6.01643 16 6.5999 16H19.7999C20.3834 16 20.943 15.7893 21.3555 15.4142C21.7681 15.0391 21.9999 14.5304 21.9999 14V2C21.9999 1.46957 21.7681 0.960859 21.3555 0.585786C20.943 0.210714 20.3834 0 19.7999 0ZM12.1736 12.481L8.5722 9.207L10.1276 7.793L12.0262 9.519L16.7551 4.36L18.4458 5.641L12.1736 12.481Z" fill="white"/>
<path d="M2.2 20H14.3V18H2.2V6H0V18C0 19.103 0.9867 20 2.2 20Z" fill="white"/>
</svg>
