<svg width="14" height="12" viewBox="0 0 14 12" fill="none" xmlns="http://www.w3.org/2000/svg">
<path id="Vector" d="M0.185059 3.4107L6.69848 7.97162L13.2119 3.4107V9.92412C13.2119 10.28 13.0848 10.5851 12.8305 10.8394C12.5763 11.0936 12.2662 11.2207 11.9001 11.2207H1.49689C1.1308 11.2207 0.820638 11.0936 0.566406 10.8394C0.312174 10.5851 0.185059 10.28 0.185059 9.92412V3.4107ZM1.49689 0.817539H11.9001C12.2662 0.817539 12.5763 0.944655 12.8305 1.19889C13.0848 1.45312 13.2119 1.7582 13.2119 2.11412L6.69848 6.67504L0.185059 2.11412C0.185059 1.7582 0.312174 1.45312 0.566406 1.19889C0.820638 0.944655 1.1308 0.817539 1.49689 0.817539Z" fill="#111111"/>
</svg>
