<svg width="67" height="67" viewBox="0 0 67 67" fill="none" xmlns="http://www.w3.org/2000/svg">
<g opacity="0.5" clip-path="url(#clip0_558_2991)">
<path d="M60.5225 22.5078C61.5039 23.0531 62.3981 23.7183 63.2051 24.5034C64.012 25.2886 64.6881 26.161 65.2334 27.1206C65.7786 28.0802 66.2148 29.0944 66.542 30.1631C66.8691 31.2318 67.0218 32.3441 67 33.5H62.8125C62.8125 32.3659 62.5944 31.2863 62.1582 30.2612C61.722 29.2362 61.1222 28.3529 60.3589 27.6113C59.5955 26.8698 58.7013 26.27 57.6763 25.812C56.6512 25.354 55.5716 25.125 54.4375 25.125C53.2816 25.125 52.202 25.3431 51.1987 25.7793C50.1955 26.2155 49.3122 26.8153 48.5488 27.5786C47.7855 28.342 47.1857 29.2362 46.7495 30.2612C46.3133 31.2863 46.0843 32.3659 46.0625 33.5C46.0625 35.4847 45.6154 37.3713 44.7212 39.1597C43.827 40.9481 42.5729 42.4312 40.959 43.6089C42.3766 44.3286 43.6525 45.2119 44.7866 46.2588C45.9207 47.3057 46.9022 48.4834 47.731 49.792C48.5597 51.1006 49.1813 52.4964 49.5957 53.9795C50.0101 55.4626 50.2282 57.0111 50.25 58.625H46.0625C46.0625 56.902 45.7354 55.2772 45.0811 53.7505C44.4268 52.2238 43.5216 50.8934 42.3657 49.7593C41.2098 48.6252 39.8794 47.731 38.3745 47.0767C36.8696 46.4224 35.2448 46.0843 33.5 46.0625C31.777 46.0625 30.1522 46.3896 28.6255 47.0439C27.0988 47.6982 25.7684 48.6034 24.6343 49.7593C23.5002 50.9152 22.606 52.2456 21.9517 53.7505C21.2974 55.2554 20.9593 56.8802 20.9375 58.625H16.75C16.75 57.0329 16.9681 55.4953 17.4043 54.0122C17.8405 52.5291 18.4621 51.1333 19.269 49.8247C20.076 48.5161 21.0465 47.3384 22.1807 46.2915C23.3148 45.2446 24.6016 44.3504 26.041 43.6089C24.4489 42.4312 23.2057 40.9481 22.3115 39.1597C21.4173 37.3713 20.9593 35.4847 20.9375 33.5C20.9375 32.3659 20.7194 31.2863 20.2832 30.2612C19.847 29.2362 19.2472 28.3529 18.4839 27.6113C17.7205 26.8698 16.8263 26.27 15.8013 25.812C14.7762 25.354 13.6966 25.125 12.5625 25.125C11.4066 25.125 10.327 25.3431 9.32373 25.7793C8.32048 26.2155 7.43717 26.8153 6.67383 27.5786C5.91048 28.342 5.31071 29.2362 4.87451 30.2612C4.43831 31.2863 4.20931 32.3659 4.1875 33.5H0C0 32.3659 0.152669 31.2645 0.458008 30.1958C0.763346 29.1271 1.18864 28.113 1.73389 27.1533C2.27913 26.1937 2.96615 25.3213 3.79492 24.5361C4.6237 23.751 5.5179 23.0749 6.47754 22.5078C5.75781 21.7445 5.20166 20.8612 4.80908 19.8579C4.4165 18.8547 4.20931 17.8187 4.1875 16.75C4.1875 15.6159 4.4056 14.5363 4.8418 13.5112C5.27799 12.4862 5.87777 11.6029 6.64111 10.8613C7.40446 10.1198 8.28776 9.52002 9.29102 9.06201C10.2943 8.604 11.3848 8.375 12.5625 8.375C13.6966 8.375 14.7762 8.5931 15.8013 9.0293C16.8263 9.46549 17.7096 10.0653 18.4512 10.8286C19.1927 11.592 19.7925 12.4862 20.2505 13.5112C20.7085 14.5363 20.9375 15.6159 20.9375 16.75C20.9375 17.8187 20.7412 18.8547 20.3486 19.8579C19.9561 20.8612 19.389 21.7445 18.6475 22.5078C20.4359 23.4893 21.8971 24.8415 23.0312 26.5645C24.209 24.8197 25.7139 23.4456 27.5459 22.4424C29.3779 21.4391 31.3626 20.9375 33.5 20.9375C35.6156 20.9375 37.5894 21.4391 39.4214 22.4424C41.2534 23.4456 42.7692 24.8197 43.9688 26.5645C45.1029 24.8415 46.5641 23.4893 48.3525 22.5078C47.6328 21.7445 47.0767 20.8612 46.6841 19.8579C46.2915 18.8547 46.0843 17.8187 46.0625 16.75C46.0625 15.6159 46.2806 14.5363 46.7168 13.5112C47.153 12.4862 47.7528 11.6029 48.5161 10.8613C49.2795 10.1198 50.1628 9.52002 51.166 9.06201C52.1693 8.604 53.2598 8.375 54.4375 8.375C55.5716 8.375 56.6512 8.5931 57.6763 9.0293C58.7013 9.46549 59.5846 10.0653 60.3262 10.8286C61.0677 11.592 61.6675 12.4862 62.1255 13.5112C62.5835 14.5363 62.8125 15.6159 62.8125 16.75C62.8125 17.8187 62.6162 18.8547 62.2236 19.8579C61.8311 20.8612 61.264 21.7445 60.5225 22.5078ZM8.375 16.75C8.375 17.3389 8.48405 17.8841 8.70215 18.3857C8.92025 18.8874 9.21468 19.3236 9.58545 19.6943C9.95622 20.0651 10.4033 20.3704 10.9268 20.6104C11.4502 20.8503 11.9954 20.9593 12.5625 20.9375C13.1514 20.9375 13.6966 20.8285 14.1982 20.6104C14.6999 20.3923 15.1361 20.0978 15.5068 19.7271C15.8776 19.3563 16.1829 18.9092 16.4229 18.3857C16.6628 17.8623 16.7718 17.3171 16.75 16.75C16.75 16.1611 16.641 15.6159 16.4229 15.1143C16.2048 14.6126 15.9103 14.1764 15.5396 13.8057C15.1688 13.4349 14.7217 13.1296 14.1982 12.8896C13.6748 12.6497 13.1296 12.5407 12.5625 12.5625C11.9736 12.5625 11.4284 12.6715 10.9268 12.8896C10.4251 13.1077 9.98893 13.4022 9.61816 13.7729C9.2474 14.1437 8.94206 14.5908 8.70215 15.1143C8.46224 15.6377 8.35319 16.1829 8.375 16.75ZM33.5 41.875C34.6341 41.875 35.7137 41.6569 36.7388 41.2207C37.7638 40.7845 38.6471 40.1847 39.3887 39.4214C40.1302 38.658 40.73 37.7747 41.188 36.7715C41.646 35.7682 41.875 34.6777 41.875 33.5C41.875 32.3659 41.6569 31.2863 41.2207 30.2612C40.7845 29.2362 40.1847 28.3529 39.4214 27.6113C38.658 26.8698 37.7638 26.27 36.7388 25.812C35.7137 25.354 34.6341 25.125 33.5 25.125C32.3441 25.125 31.2645 25.3431 30.2612 25.7793C29.258 26.2155 28.3747 26.8153 27.6113 27.5786C26.848 28.342 26.2482 29.2362 25.812 30.2612C25.3758 31.2863 25.1468 32.3659 25.125 33.5C25.125 34.6559 25.3431 35.7355 25.7793 36.7388C26.2155 37.742 26.8153 38.6253 27.5786 39.3887C28.342 40.152 29.2253 40.7518 30.2285 41.188C31.2318 41.6242 32.3223 41.8532 33.5 41.875ZM50.25 16.75C50.25 17.3389 50.3591 17.8841 50.5771 18.3857C50.7952 18.8874 51.0897 19.3236 51.4604 19.6943C51.8312 20.0651 52.2783 20.3704 52.8018 20.6104C53.3252 20.8503 53.8704 20.9593 54.4375 20.9375C55.0264 20.9375 55.5716 20.8285 56.0732 20.6104C56.5749 20.3923 57.0111 20.0978 57.3818 19.7271C57.7526 19.3563 58.0579 18.9092 58.2979 18.3857C58.5378 17.8623 58.6468 17.3171 58.625 16.75C58.625 16.1611 58.5159 15.6159 58.2979 15.1143C58.0798 14.6126 57.7853 14.1764 57.4146 13.8057C57.0438 13.4349 56.5967 13.1296 56.0732 12.8896C55.5498 12.6497 55.0046 12.5407 54.4375 12.5625C53.8486 12.5625 53.3034 12.6715 52.8018 12.8896C52.3001 13.1077 51.8639 13.4022 51.4932 13.7729C51.1224 14.1437 50.8171 14.5908 50.5771 15.1143C50.3372 15.6377 50.2282 16.1829 50.25 16.75Z" fill="black"/>
</g>
<defs>
<clipPath id="clip0_558_2991">
<rect width="67" height="67" fill="white"/>
</clipPath>
</defs>
</svg>
