<svg width="14" height="14" viewBox="0 0 14 14" fill="none" xmlns="http://www.w3.org/2000/svg">
<path id="&#238;&#164;&#186;" fill-rule="evenodd" clip-rule="evenodd" d="M9.47461 12.6836C8.64388 13.0307 7.75586 13.2043 6.81055 13.2043L6.45874 13.1961C5.64412 13.1582 4.87337 12.9873 4.14648 12.6836C3.33008 12.3504 2.61035 11.8818 1.9873 11.2778C1.36426 10.6738 0.880859 9.9761 0.537109 9.18468C0.179036 8.37937 0 7.51852 0 6.60214C0 5.68575 0.179036 4.82491 0.537109 4.0196C0.880859 3.22817 1.36426 2.53047 1.9873 1.92649C2.61035 1.32251 3.33008 0.853904 4.14648 0.520673C4.97721 0.173558 5.86523 0 6.81055 0C7.75586 0 8.64388 0.173558 9.47461 0.520673C10.291 0.853904 11.0107 1.32251 11.6338 1.92649C12.2568 2.53047 12.7402 3.22817 13.084 4.0196C13.4421 4.82491 13.6211 5.68575 13.6211 6.60214L13.6127 6.94318C13.5735 7.73287 13.3973 8.48003 13.084 9.18468C12.7402 9.9761 12.2568 10.6738 11.6338 11.2778C11.0107 11.8818 10.291 12.3504 9.47461 12.6836ZM4.68359 11.4756C5.34245 11.7533 6.05143 11.8922 6.81055 11.8922C7.56966 11.8922 8.27865 11.7533 8.9375 11.4756C9.59635 11.1979 10.1729 10.8196 10.667 10.3406C11.1611 9.86154 11.5514 9.30269 11.8379 8.664C12.1243 8.0253 12.2676 7.33801 12.2676 6.60213L12.2609 6.32845C12.2295 5.69518 12.0885 5.09912 11.8379 4.54026C11.5514 3.90157 11.1611 3.34271 10.667 2.8637C10.1729 2.38468 9.59635 2.00632 8.9375 1.72863C8.27865 1.45094 7.56966 1.31209 6.81055 1.31209L6.52823 1.3186C5.87497 1.34897 5.26009 1.48565 4.68359 1.72863C4.02474 2.00632 3.44824 2.38468 2.9541 2.8637C2.45996 3.34271 2.06966 3.90157 1.7832 4.54026C1.49674 5.17896 1.35352 5.86624 1.35352 6.60213L1.36023 6.87581C1.39156 7.50908 1.53255 8.10514 1.7832 8.664C2.06966 9.30269 2.45996 9.86154 2.9541 10.3406C3.44824 10.8196 4.02474 11.1979 4.68359 11.4756ZM7.49805 7.26859V3.29065H6.12305V7.26859H7.49805ZM7.49805 8.58069V9.91361H6.12305V8.58069H7.49805Z" fill="black"/>
</svg>
