<svg width="34" height="23" viewBox="0 0 34 23" fill="none" xmlns="http://www.w3.org/2000/svg">
<g id="notificationmailicon 1" clip-path="url(#clip0_3750_4410)">
<g id="uuid-e54758be-af15-47f2-b1a3-fbe24ddafe68">
<path id="Vector" d="M5.77832 23C5.81833 22.8485 5.85244 22.6943 5.89966 22.5448C6.04659 22.0797 6.22238 21.6252 6.43358 21.1851C6.90584 20.1992 7.54339 19.3328 8.34689 18.5929C9.05396 17.9416 9.85287 17.4227 10.7246 17.0148C11.1949 16.795 11.6783 16.612 12.1735 16.4585C12.2194 16.4441 12.285 16.4494 12.3263 16.4723C12.756 16.7078 13.2013 16.9098 13.6611 17.0738C13.9871 17.1905 14.3249 17.2738 14.6614 17.3591C14.9165 17.424 15.1763 17.4772 15.436 17.5185C15.6544 17.5533 15.8761 17.5743 16.0972 17.5834C16.4284 17.5979 16.7597 17.6077 17.0909 17.5998C17.3618 17.5933 17.634 17.5716 17.9016 17.5336C18.2191 17.4883 18.5326 17.4195 18.8474 17.3598C19.2521 17.283 19.6378 17.1473 20.0235 17.0049C20.4269 16.856 20.8119 16.673 21.1884 16.4697C21.2455 16.4389 21.296 16.4362 21.3583 16.4559C21.9322 16.6396 22.493 16.8567 23.0322 17.1276C24.3316 17.7802 25.4342 18.6703 26.2921 19.8496C26.7873 20.5298 27.1795 21.2677 27.4563 22.0633C27.5593 22.3598 27.6466 22.6622 27.7404 22.9619C27.7436 22.9731 27.741 22.9869 27.741 22.9993H5.77832V23Z" fill="#ffffff"/>
<path id="Vector_2" d="M0 18.377C0.0150861 18.356 0.0380431 18.337 0.0439464 18.314C0.29713 17.3314 0.793003 16.4899 1.53091 15.7953C2.06023 15.2974 2.67351 14.9295 3.34911 14.6645C3.49997 14.6054 3.6528 14.5497 3.80759 14.5018C3.85088 14.488 3.90992 14.4946 3.95321 14.513C4.23919 14.6369 4.51729 14.7819 4.80918 14.8888C5.04006 14.9734 5.28537 15.018 5.52675 15.0725C5.90128 15.1564 6.28302 15.182 6.66608 15.1715C6.86744 15.1656 7.07012 15.1512 7.26886 15.1223C7.54828 15.0816 7.82901 15.0397 8.10188 14.9682C8.47903 14.8698 8.84372 14.7307 9.18283 14.5353C9.26547 14.488 9.33762 14.4795 9.42617 14.5103C9.81382 14.6428 10.1962 14.7884 10.5517 14.9957C10.7564 15.1144 10.9538 15.245 11.1545 15.3702C11.1814 15.3873 11.2057 15.4076 11.245 15.4358C11.1375 15.4765 11.0443 15.5139 10.9505 15.5473C10.1483 15.8307 9.38616 16.1987 8.6699 16.6552C7.95298 17.1124 7.28526 17.6325 6.71133 18.2628C6.59983 18.3855 6.4857 18.4314 6.31778 18.4307C4.26411 18.4242 2.21044 18.4268 0.156764 18.4268H0C0 18.4104 0 18.394 0 18.3776V18.377Z" fill="#ffffff"/>
<path id="Vector_3" d="M17.133 15.7967C14.937 15.9174 12.8683 15.1579 11.1642 13.4748C9.81367 12.1407 9.04165 10.5035 8.87767 8.61249C8.67696 6.29841 9.36699 4.2572 10.9451 2.5492C12.5219 0.84316 14.4969 -0.0187135 16.8234 0.000308102C18.9912 0.0180178 20.8586 0.808397 22.3863 2.34783C23.7545 3.72657 24.5186 5.39981 24.6433 7.34001C24.7981 9.74656 24.0129 11.8206 22.3049 13.5207C20.9354 14.8844 19.2602 15.619 17.1324 15.7967H17.133ZM11.2219 10.1185C11.2259 10.1368 11.2259 10.148 11.2298 10.1572C11.3898 10.5337 11.584 10.8918 11.8188 11.2263C12.5646 12.2876 13.5347 13.0662 14.7521 13.5279C14.9357 13.5974 15.1233 13.6611 15.3135 13.7103C15.5083 13.7608 15.7071 13.7968 15.9058 13.8277C16.0934 13.8572 16.2843 13.89 16.4732 13.8887C16.792 13.8874 17.1114 13.8618 17.4302 13.8434C17.6965 13.8277 17.9536 13.7647 18.212 13.7004C18.6292 13.5968 19.0273 13.4446 19.4064 13.2459C20.5963 12.6208 21.5047 11.7137 22.1154 10.514C22.1803 10.3867 22.2361 10.2556 22.2997 10.1185H11.2226H11.2219Z" fill="#ffffff"/>
<path id="Vector_4" d="M8.56126 10.6383H3.2713C3.29491 10.6927 3.31459 10.7393 3.33558 10.7852C3.77635 11.7356 4.49655 12.3778 5.48305 12.7274C5.93891 12.8887 6.41051 12.9301 6.88671 12.8927C7.66725 12.8317 8.35858 12.5444 8.95219 12.0315C9.07091 11.9291 9.06697 11.9298 9.14634 12.0669C9.30966 12.3489 9.47561 12.6297 9.64156 12.9097C9.66123 12.9425 9.66845 12.9629 9.63237 12.9911C9.18635 13.3459 8.70097 13.6306 8.15853 13.8142C7.86534 13.9133 7.56689 13.9841 7.25861 14.0287C6.92606 14.0766 6.59286 14.0851 6.26096 14.0687C5.95006 14.0537 5.64244 13.9933 5.34203 13.9074C4.29715 13.6089 3.44774 13.0271 2.79445 12.16C2.52618 11.8039 2.3176 11.4149 2.15887 10.9984C2.03359 10.6691 1.93979 10.3313 1.90109 9.98173C1.8742 9.74101 1.8519 9.49832 1.85255 9.25629C1.85321 8.97293 1.88732 8.69154 1.94373 8.41212C2.03752 7.94642 2.19232 7.50368 2.42058 7.08914C3.03911 5.96621 3.9587 5.2001 5.18067 4.80721C5.45025 4.72063 5.73361 4.66422 6.015 4.62749C6.28458 4.59207 6.56072 4.58354 6.83292 4.59403C7.16678 4.60715 7.49671 4.65897 7.8227 4.74883C8.11918 4.83082 8.40384 4.93708 8.68261 5.06433C8.74492 5.09253 8.7482 5.12533 8.72918 5.1837C8.64063 5.45328 8.54421 5.7209 8.47337 5.99507C8.40122 6.2758 8.35071 6.56244 8.30021 6.84776C8.26413 7.04978 8.24118 7.25443 8.21756 7.45908C8.20576 7.56402 8.20313 7.66962 8.20116 7.77523C8.19854 7.93921 8.19985 8.10318 8.1992 8.26716C8.1992 8.27241 8.1992 8.27831 8.19985 8.28356C8.211 8.51051 8.21625 8.73746 8.23462 8.96375C8.2497 9.15003 8.27069 9.33631 8.30349 9.51996C8.3494 9.77577 8.40712 10.0296 8.46419 10.2828C8.49042 10.3989 8.5265 10.5124 8.56126 10.639V10.6383Z" fill="#ffffff"/>
<path id="Vector_5" d="M23.8498 12.9445C23.9547 12.7772 24.0577 12.6211 24.1515 12.4604C24.242 12.3056 24.3279 12.1482 24.4066 11.9868C24.4414 11.916 24.4644 11.9285 24.5109 11.9704C24.753 12.1882 25.0173 12.3738 25.3092 12.5188C25.6267 12.6762 25.9579 12.7916 26.3095 12.852C26.581 12.8986 26.8532 12.9077 27.1254 12.8933C27.4547 12.8756 27.7774 12.8133 28.0896 12.7005C29.0368 12.3574 29.7255 11.731 30.161 10.8246C30.1879 10.7688 30.2109 10.7117 30.2404 10.6435H24.9543C24.9845 10.515 25.0134 10.3962 25.0403 10.2775C25.0901 10.0604 25.1498 9.84527 25.1852 9.62554C25.2292 9.35006 25.2554 9.07129 25.2836 8.79318C25.2961 8.66987 25.2954 8.54459 25.3013 8.42062C25.3066 8.30715 25.3203 8.19368 25.3157 8.08086C25.3046 7.79554 25.2934 7.50956 25.2672 7.22489C25.2226 6.74804 25.1275 6.27906 24.9983 5.81795C24.934 5.58969 24.8435 5.3693 24.7694 5.14367C24.7641 5.12727 24.7897 5.08595 24.81 5.07742C25.054 4.97838 25.2941 4.86753 25.5453 4.7921C25.7965 4.71667 26.0563 4.66222 26.316 4.62746C26.5561 4.59532 26.8014 4.58811 27.0441 4.59335C27.4239 4.60188 27.8004 4.65501 28.167 4.75668C29.0932 5.01314 29.8724 5.50376 30.5054 6.22658C30.8491 6.61948 31.1127 7.06091 31.3128 7.54104C31.4387 7.84342 31.5253 8.1576 31.583 8.479C31.6119 8.63904 31.6237 8.80302 31.6335 8.96569C31.6453 9.16312 31.6611 9.36186 31.6499 9.55864C31.6309 9.89381 31.5804 10.225 31.4938 10.553C31.3108 11.2483 30.9835 11.8655 30.5172 12.4066C29.8658 13.1629 29.0551 13.6758 28.0817 13.9133C27.822 13.9769 27.5544 14.0136 27.2881 14.0379C27.029 14.0615 26.7666 14.0668 26.5075 14.0536C26.3062 14.0431 26.1048 13.9992 25.9061 13.9572C25.1518 13.7985 24.4834 13.46 23.8859 12.9779C23.8714 12.9661 23.8576 12.953 23.8491 12.9445H23.8498Z" fill="#ffffff"/>
<path id="Vector_6" d="M33.5134 18.4238C33.4701 18.4238 33.4406 18.4238 33.4117 18.4238C31.2957 18.4238 29.1797 18.4238 27.0631 18.4244C27.0021 18.4244 26.9555 18.4113 26.9122 18.3634C26.4675 17.8695 25.9677 17.4366 25.4312 17.0457C24.6651 16.4868 23.8367 16.0402 22.9564 15.6899C22.7452 15.606 22.5274 15.5371 22.313 15.4603C22.2985 15.4551 22.288 15.4407 22.2729 15.4282C22.6042 15.1927 22.9407 14.9743 23.3106 14.8149C23.5763 14.7001 23.8485 14.5998 24.12 14.4994C24.164 14.483 24.2276 14.4916 24.2728 14.5106C24.5667 14.6339 24.8514 14.7834 25.1518 14.8858C25.4377 14.9828 25.7382 15.0412 26.0353 15.1016C26.3705 15.1698 26.7122 15.1822 27.0533 15.1678C27.4665 15.1501 27.8778 15.1114 28.2792 15.0038C28.7311 14.8831 29.1686 14.7244 29.5759 14.4909C29.6002 14.4771 29.6389 14.4725 29.6651 14.4804C30.2561 14.668 30.8163 14.9225 31.3305 15.2708C32.2763 15.9103 32.9401 16.7709 33.3278 17.8433C33.3953 18.0302 33.4484 18.2224 33.5121 18.4231L33.5134 18.4238Z" fill="#ffffff"/>
</g>
</g>
<defs>
<clipPath id="clip0_3750_4410">
<rect width="33.7812" height="23" fill="white"/>
</clipPath>
</defs>
</svg>
