<svg width="14" height="14" viewBox="0 0 14 14" fill="none" xmlns="http://www.w3.org/2000/svg">
<path id="Vector" d="M3.52566 0.341933H9.87129C10.4509 0.341933 10.8755 0.37244 11.145 0.433456C11.4145 0.494472 11.656 0.580911 11.8695 0.692773C12.0831 0.804635 12.2738 0.94192 12.4416 1.10463C12.6094 1.26734 12.7492 1.45547 12.8611 1.66902C12.9729 1.88258 13.0594 2.12664 13.1204 2.40121C13.1814 2.67578 13.2119 3.10289 13.2119 3.68254V7.41975C13.2119 7.99939 13.1814 8.42396 13.1204 8.69345C13.0594 8.96293 12.9729 9.20445 12.8611 9.41801C12.7492 9.63156 12.6094 9.82224 12.4416 9.99003C12.2738 10.1578 12.0831 10.2976 11.8695 10.4095C11.656 10.5214 11.4145 10.6078 11.145 10.6688C10.8755 10.7298 10.4509 10.7604 9.87129 10.7604H2.79348L0.185059 13.3535V3.68254C0.185059 3.10289 0.215566 2.67578 0.276582 2.40121C0.337598 2.12664 0.424036 1.88258 0.535898 1.66902C0.64776 1.45547 0.787588 1.26734 0.955381 1.10463C1.12317 0.94192 1.31385 0.804635 1.5274 0.692773C1.74096 0.580911 1.98248 0.494472 2.25196 0.433456C2.52145 0.37244 2.94602 0.341933 3.52566 0.341933ZM9.94756 6.85535C10.3137 6.85535 10.6238 6.72824 10.878 6.474C11.1323 6.21977 11.2594 5.90961 11.2594 5.54352C11.2594 5.18759 11.1323 4.88251 10.878 4.62828C10.6238 4.37405 10.3137 4.24693 9.94756 4.24693C9.59163 4.24693 9.28656 4.37405 9.03232 4.62828C8.77809 4.88251 8.65098 5.18759 8.65098 5.54352C8.65098 5.90961 8.77809 6.21977 9.03232 6.474C9.28656 6.72824 9.59163 6.85535 9.94756 6.85535ZM6.69848 6.85535C7.0544 6.85535 7.35948 6.72824 7.61371 6.474C7.86794 6.21977 7.99506 5.90961 7.99506 5.54352C7.99506 5.18759 7.86794 4.88251 7.61371 4.62828C7.35948 4.37405 7.0544 4.24693 6.69848 4.24693C6.34255 4.24693 6.03747 4.37405 5.78324 4.62828C5.52901 4.88251 5.40189 5.18759 5.40189 5.54352C5.40189 5.90961 5.52901 6.21977 5.78324 6.474C6.03747 6.72824 6.34255 6.85535 6.69848 6.85535ZM3.44939 6.85535C3.80532 6.85535 4.1104 6.72824 4.36463 6.474C4.61886 6.21977 4.74598 5.90961 4.74598 5.54352C4.74598 5.18759 4.61886 4.88251 4.36463 4.62828C4.1104 4.37405 3.80532 4.24693 3.44939 4.24693C3.0833 4.24693 2.77314 4.37405 2.51891 4.62828C2.26467 4.88251 2.13756 5.18759 2.13756 5.54352C2.13756 5.90961 2.26467 6.21977 2.51891 6.474C2.77314 6.72824 3.0833 6.85535 3.44939 6.85535Z" fill="#111111"/>
</svg>
