<svg width="52" height="52" viewBox="0 0 52 52" fill="none" xmlns="http://www.w3.org/2000/svg">
<g opacity="0.5" clip-path="url(#clip0_558_2985)">
<path d="M25.9998 24.5557C27.9996 24.5557 29.9545 23.9627 31.6172 22.8517C33.28 21.7407 34.5759 20.1615 35.3412 18.314C36.1065 16.4664 36.3068 14.4334 35.9166 12.472C35.5265 10.5107 34.5635 8.70904 33.1494 7.29498C31.7354 5.88091 29.9337 4.91792 27.9724 4.52778C26.011 4.13764 23.978 4.33788 22.1304 5.10316C20.2829 5.86845 18.7037 7.16442 17.5927 8.82718C16.4817 10.4899 15.8887 12.4448 15.8887 14.4446C15.8887 17.1262 16.9539 19.698 18.8501 21.5942C20.7463 23.4904 23.3181 24.5557 25.9998 24.5557ZM25.9998 7.22239C27.4282 7.22239 28.8245 7.64597 30.0122 8.43955C31.1999 9.23314 32.1256 10.3611 32.6722 11.6808C33.2189 13.0005 33.3619 14.4526 33.0832 15.8536C32.8046 17.2546 32.1167 18.5414 31.1067 19.5515C30.0966 20.5615 28.8097 21.2494 27.4088 21.5281C26.0078 21.8067 24.5556 21.6637 23.236 21.1171C21.9163 20.5704 20.7883 19.6448 19.9947 18.4571C19.2011 17.2694 18.7776 15.873 18.7776 14.4446C18.7776 12.5292 19.5385 10.6922 20.8929 9.33773C22.2473 7.9833 24.0843 7.22239 25.9998 7.22239Z" fill="black"/>
<path d="M44.0122 35.2012C41.6957 32.7528 38.9043 30.8027 35.8085 29.4699C32.7127 28.1371 29.3777 27.4497 26.0072 27.4497C22.6367 27.4497 19.3016 28.1371 16.2058 29.4699C13.1101 30.8027 10.3186 32.7528 8.00217 35.2012C7.49996 35.7376 7.22103 36.4452 7.22217 37.18V44.7778C7.22217 45.544 7.52654 46.2788 8.06831 46.8206C8.61008 47.3623 9.34488 47.6667 10.1111 47.6667H41.8888C42.655 47.6667 43.3898 47.3623 43.9316 46.8206C44.4734 46.2788 44.7777 45.544 44.7777 44.7778V37.18C44.7828 36.4472 44.5091 35.7398 44.0122 35.2012ZM41.8888 44.7778H10.1111V37.1656C12.1582 35.01 14.6225 33.2935 17.354 32.1206C20.0856 30.9476 23.0272 30.3427 26 30.3427C28.9727 30.3427 31.9143 30.9476 34.6459 32.1206C37.3774 33.2935 39.8417 35.01 41.8888 37.1656V44.7778Z" fill="black"/>
</g>
<defs>
<clipPath id="clip0_558_2985">
<rect width="52" height="52" fill="white"/>
</clipPath>
</defs>
</svg>
